<?xml version="1.0" encoding="iso-8859-1"?>
<!-- Generator: Adobe Illustrator 19.0.0, SVG Export Plug-In . SVG Version: 6.00 Build 0)  -->
<svg version="1.1" id="Layer_1" xmlns="http://www.w3.org/2000/svg" xmlns:xlink="http://www.w3.org/1999/xlink" x="0px" y="0px"
	 viewBox="0 0 512 512" style="enable-background:new 0 0 512 512;" xml:space="preserve">
<polygon style="fill:#CDD6E0;" points="188.813,373.658 103.529,441.945 100.33,333.166 "/>
<polygon style="fill:#FF7058;" points="291.193,401.354 218.707,482.438 196.311,375.759 "/>
<polygon style="fill:#CDD6E0;" points="298.692,402.453 338.084,503.735 395.673,410.951 "/>
<g>
	<polygon style="fill:#FF7058;" points="396.773,410.951 461.861,498.435 492.755,393.955 	"/>
	<polygon style="fill:#FF7058;" points="100.33,332.066 0.049,375.759 25.644,269.178 	"/>
</g>
<polygon style="fill:#84DBFF;" points="323.187,133.704 408.471,200.892 411.67,92.112 "/>
<polygon style="fill:#FFD15C;" points="220.807,160.399 293.293,242.485 315.689,135.805 "/>
<polygon style="fill:#84DBFF;" points="213.308,162.5 173.916,263.78 116.327,170.998 "/>
<g>
	<polygon style="fill:#FFD15C;" points="115.227,169.998 50.139,257.381 19.245,154.002 	"/>
	<polygon style="fill:#FFD15C;" points="411.67,91.013 511.951,134.805 486.356,29.224 	"/>
</g>
<g style="opacity:0.8;">
	<path style="fill:#66A8C4;" d="M212.708,164.199c-33.694,5.499-66.387,7.898-96.182,7.099l7.499,11.998
		c26.295,0.2,54.59-2,83.884-6.599L212.708,164.199z"/>
	<g>
		<path style="fill:#C4A046;" d="M315.289,137.805c-14.897,5.299-30.394,10.098-46.191,14.397
			c-15.597,4.099-31.094,7.499-46.491,10.198l8.798,9.998c13.497-2.699,27.095-5.899,40.892-9.598
			c13.697-3.599,27.195-7.599,40.192-11.898L315.289,137.805z"/>
		<path style="fill:#C4A046;" d="M114.227,171.298c-35.493-1.1-66.887-6.599-91.283-16.697l-3.799-0.6l3.999,13.497
			c22.996,8.598,51.09,13.797,82.384,15.397L114.227,171.298z"/>
	</g>
	<path style="fill:#66A8C4;" d="M411.67,92.812c-25.595,15.497-55.289,29.694-87.383,41.792l10.698,8.498
		c27.795-10.498,53.49-22.696,76.285-36.093L411.67,92.812z"/>
	<path style="fill:#C4A046;" d="M489.755,43.022l-3.299-13.697c-16.197,21.796-41.492,43.092-72.986,62.488l13.197,5.699
		C452.562,80.615,474.058,62.218,489.755,43.022z"/>
</g>
<g style="opacity:0.8;">
	<path style="fill:#C45643;" d="M240.103,403.953c13.497,3.699,26.995,6.799,40.292,9.498l8.098-9.098
		c-14.997-2.699-30.094-6.099-45.191-9.998c-15.797-4.499-31.294-9.398-46.291-14.897l2.5,12.098
		C212.708,396.054,226.306,400.153,240.103,403.953z"/>
	<path style="fill:#C45643;" d="M488.356,408.753l3.899-13.297c-24.695,10.698-56.989,16.697-93.782,17.797l7.798,10.498
		C437.465,422.35,465.36,417.251,488.356,408.753z"/>
	<path style="fill:#C45643;" d="M86.632,338.065l12.298-5.399c-31.294-19.396-56.389-40.892-72.586-62.888l-0.7-0.6l-3.199,13.397
		C38.242,302.072,60.138,320.87,86.632,338.065z"/>
</g>
<g>
	<path style="fill:#F2F2F2;" d="M269.897,152.901c-106.68,28.794-209.06,26.695-266.649-3.199c-3.199-2.1-4.299-5.299-2.1-8.498
		c1.1-3.199,5.299-4.299,7.499-2.1c54.39,28.794,155.67,29.894,258.051,3.199c102.38-27.795,189.764-78.985,222.857-131.275
		c2.1-3.199,5.299-3.199,7.499-2.1c3.199,2.1,3.199,5.299,2.1,7.499C463.96,72.916,376.477,125.206,269.897,152.901z"/>
	<path style="fill:#F2F2F2;" d="M242.103,393.955c106.68,28.794,209.06,26.695,266.649-3.199c3.199-1.1,4.299-5.299,2.1-7.499
		c-1.1-3.199-5.299-4.299-7.499-2.1c-54.39,28.794-155.67,29.894-258.051,3.199c-102.38-28.794-189.864-79.985-222.857-133.274
		c-2.1-3.199-5.299-3.199-7.499-2.1c-2.2,1.1-3.199,5.299-2.1,7.499C48.04,312.871,135.523,365.16,242.103,393.955z"/>
</g>
<g>
</g>
<g>
</g>
<g>
</g>
<g>
</g>
<g>
</g>
<g>
</g>
<g>
</g>
<g>
</g>
<g>
</g>
<g>
</g>
<g>
</g>
<g>
</g>
<g>
</g>
<g>
</g>
<g>
</g>
</svg>
